<mxfile host="Electron" agent="Mozilla/5.0 (Windows NT 10.0; Win64; x64) AppleWebKit/537.36 (KHTML, like Gecko) draw.io/26.0.9 Chrome/128.0.6613.186 Electron/32.2.5 Safari/537.36" version="26.0.9">
  <diagram name="第 1 页" id="ewl9boTtj5eG1xmZE2dz">
    <mxGraphModel dx="146" dy="62" grid="1" gridSize="1.1810999999999998" guides="1" tooltips="1" connect="1" arrows="1" fold="1" page="1" pageScale="1" pageWidth="48" pageHeight="48" background="#464647" math="0" shadow="0">
      <root>
        <mxCell id="0" />
        <mxCell id="1" parent="0" />
        <mxCell id="2P42lfGQzi3eSQMKkzsf-1" value="" style="rounded=0;whiteSpace=wrap;html=1;fillColor=none;strokeColor=#EBEBEB;strokeWidth=1.9685;" vertex="1" parent="1">
          <mxGeometry x="-47.24" y="15.75" width="23.62" height="31.49" as="geometry" />
        </mxCell>
        <mxCell id="2P42lfGQzi3eSQMKkzsf-2" value="" style="rounded=0;whiteSpace=wrap;html=1;fillColor=#EBEBEB;strokeColor=#EBEBEB;strokeWidth=1.9685;" vertex="1" parent="1">
          <mxGeometry x="-15.75" width="23.62" height="31.5" as="geometry" />
        </mxCell>
        <mxCell id="2P42lfGQzi3eSQMKkzsf-4" value="" style="ellipse;whiteSpace=wrap;html=1;aspect=fixed;fillColor=#EBEBEB;strokeColor=#EBEBEB;" vertex="1" parent="1">
          <mxGeometry x="-21.26" y="23" width="2.57" height="2.57" as="geometry" />
        </mxCell>
      </root>
    </mxGraphModel>
  </diagram>
</mxfile>
